<?xml version="1.0" encoding="utf-8"?>
<!-- Generator: Adobe Illustrator 28.0.0, SVG Export Plug-In . SVG Version: 6.00 Build 0)  -->
<svg version="1.1" id="Layer_1" xmlns="http://www.w3.org/2000/svg" xmlns:xlink="http://www.w3.org/1999/xlink" x="0px" y="0px"
	 viewBox="0 0 25 25" style="enable-background:new 0 0 25 25;" xml:space="preserve">
<path d="M22.9,10.4h-7.3c-1.7,0-3.1-1.4-3.1-3.1V0c-0.2,0-0.3,0-0.5,0H7.3C4.4,0,2.1,2.3,2.1,5.2v14.6c0,2.9,2.3,5.2,5.2,5.2h10.4
	c2.9,0,5.2-2.3,5.2-5.2v-8.9C22.9,10.8,22.9,10.6,22.9,10.4L22.9,10.4z M9.1,19.7c-0.3,0.7-1,1.1-1.8,1.1c-1.1,0-2-0.9-2-2l0-2.1
	c0-1.1,0.9-2,2-2c0.8,0,1.5,0.4,1.8,1.1c0.2,0.4-0.1,1-0.6,1c-0.2,0-0.5-0.1-0.6-0.3c-0.1-0.2-0.4-0.4-0.7-0.4
	c-0.4,0-0.8,0.3-0.8,0.8c0,0.1,0,2,0,2.1c0,0.4,0.3,0.8,0.8,0.8c0.3,0,0.6-0.2,0.7-0.4c0.1-0.2,0.3-0.3,0.6-0.3
	C9,18.8,9.3,19.3,9.1,19.7L9.1,19.7z M14.8,19.2c-0.2,0.9-1.1,1.6-2.1,1.6c-0.9,0-1.7-0.3-2.2-0.9c-0.2-0.3-0.2-0.7,0-0.9l0,0
	c0.3-0.2,0.7-0.2,0.9,0l0,0c0.3,0.3,0.8,0.5,1.2,0.5c0.5,0,0.8-0.3,0.8-0.5c0.1-0.4-0.5-0.6-0.6-0.6c-0.8-0.3-1.5-0.6-1.5-0.6
	c-0.6-0.4-0.9-1-0.8-1.6c0.1-0.7,0.6-1.2,1.3-1.4c1.4-0.4,2.5,0.5,2.5,0.6l0,0c0.3,0.2,0.3,0.6,0.1,0.9l0,0
	c-0.2,0.3-0.6,0.3-0.9,0.1c0,0-0.7-0.5-1.3-0.3c-0.3,0.1-0.4,0.3-0.4,0.4c0,0.1,0,0.2,0.1,0.3c0,0,0.6,0.3,1.3,0.5
	C14.6,17.6,14.9,18.5,14.8,19.2L14.8,19.2z M18.6,20.2c-0.1,0.4-0.4,0.6-0.8,0.6c-0.4,0-0.7-0.3-0.8-0.6l-1.2-4.8
	c-0.1-0.4,0.2-0.8,0.6-0.8c0.3,0,0.5,0.2,0.6,0.5l0.7,2.9l0.6-2.9c0.1-0.3,0.3-0.5,0.6-0.5h0c0.4,0,0.7,0.4,0.6,0.8L18.6,20.2
	L18.6,20.2z M14.6,7.3V0.5c1,0.4,1.8,0.9,2.6,1.7l3.6,3.6c0.7,0.7,1.3,1.6,1.7,2.6h-6.8C15.1,8.3,14.6,7.9,14.6,7.3L14.6,7.3z"/>
</svg>
