<?xml version="1.0" encoding="utf-8"?>
<!-- Generator: Adobe Illustrator 28.0.0, SVG Export Plug-In . SVG Version: 6.00 Build 0)  -->
<svg version="1.1" id="Outline" xmlns="http://www.w3.org/2000/svg" xmlns:xlink="http://www.w3.org/1999/xlink" x="0px" y="0px"
	 viewBox="0 0 25 25" style="enable-background:new 0 0 25 25;" xml:space="preserve">
<path d="M21.8,4.3h-3.2c-0.5-2.4-2.6-4.1-5.1-4.1h-2.1C9,0.1,6.9,1.9,6.4,4.3H3.2c-0.6,0-1,0.5-1,1s0.5,1,1,1h1v13.5
	c0,2.9,2.3,5.2,5.2,5.2h6.2c2.9,0,5.2-2.3,5.2-5.2V6.3h1c0.6,0,1-0.5,1-1S22.4,4.3,21.8,4.3z M11.5,2.2h2.1c1.3,0,2.5,0.8,2.9,2.1
	H8.5C9,3,10.1,2.2,11.5,2.2z M18.7,19.8c0,1.7-1.4,3.1-3.1,3.1H9.4c-1.7,0-3.1-1.4-3.1-3.1V6.3h12.4V19.8z"/>
<path d="M10.4,18.8c0.6,0,1-0.5,1-1v-6.2c0-0.6-0.5-1-1-1c-0.6,0-1,0.5-1,1v6.2C9.4,18.3,9.9,18.8,10.4,18.8z"/>
<path d="M14.6,18.8c0.6,0,1-0.5,1-1v-6.2c0-0.6-0.5-1-1-1c-0.6,0-1,0.5-1,1v6.2C13.5,18.3,14,18.8,14.6,18.8z"/>
</svg>
