<?xml version="1.0" encoding="UTF-8"?>
<svg xmlns="http://www.w3.org/2000/svg" id="Layer_1" data-name="Layer 1" viewBox="0 0 24 24">
  <path d="m15,13.246l6-1.246v.966l-6,1.246v-.966Zm-12-.296l6,1.262v-.966l-6-1.262v.966Zm0-4l6,1.262v-.966l-6-1.262v.966Zm12,1.262l6-1.246v-.966l-6,1.246v.966ZM3,4.949l6,1.262v-.966l-6-1.262v.966Zm12,1.262l6-1.246v-.966l-6,1.246v.966ZM3,16.949l4,.899v-.966l-4-.899v.966Zm12,1.262l4-.882v-.966l-4,.882v.966ZM24,2.586v19.222l-12,2.182L0,21.808V2.586c0-.771.339-1.496.931-1.989C1.522.104,2.294-.102,3.054.037l6.46,1.174c1.073.195,1.964.849,2.486,1.736.521-.888,1.412-1.541,2.486-1.736L20.946.037c.758-.139,1.532.066,2.124.56.591.494.931,1.219.931,1.989Zm-12.5,2.203c0-1.275-.911-2.366-2.165-2.594L2.875,1.021c-.465-.083-.941.041-1.304.344-.363.303-.572.749-.572,1.222v18.387l10.5,1.909V4.789Zm11.5-2.203c0-.473-.208-.918-.572-1.222-.363-.303-.839-.427-1.304-.344l-6.46,1.174c-1.254.229-2.165,1.319-2.165,2.594v18.093l10.5-1.909V2.586Z"/>
</svg>
