<?xml version="1.0" encoding="utf-8"?>
<!-- Generator: Adobe Illustrator 28.0.0, SVG Export Plug-In . SVG Version: 6.00 Build 0)  -->
<svg version="1.1" id="Layer_1" xmlns="http://www.w3.org/2000/svg" xmlns:xlink="http://www.w3.org/1999/xlink" x="0px" y="0px"
	 viewBox="0 0 24 24" style="enable-background:new 0 0 24 24;" xml:space="preserve">
<path d="M12,16c-2.2,0-4-1.8-4-4s1.8-4,4-4s4,1.8,4,4S14.2,16,12,16z M12,10c-1.1,0-2,0.9-2,2s0.9,2,2,2s2-0.9,2-2S13.1,10,12,10z
	 M18,23c0-3.3-2.7-6-6-6s-6,2.7-6,6c0,0.6,0.4,1,1,1s1-0.4,1-1c0-2.2,1.8-4,4-4s4,1.8,4,4c0,0.6,0.4,1,1,1C17.6,24,18,23.6,18,23z
	 M18,8c-2.2,0-4-1.8-4-4s1.8-4,4-4s4,1.8,4,4S20.2,8,18,8z M18,2c-1.1,0-2,0.9-2,2s0.9,2,2,2s2-0.9,2-2S19.1,2,18,2z M24,15
	c0-3.3-2.7-6-6-6c-0.6,0-1,0.4-1,1c0,0.6,0.4,1,1,1c2.2,0,4,1.8,4,4c0,0.6,0.4,1,1,1C23.6,16,24,15.6,24,15z M6,8C3.8,8,2,6.2,2,4
	s1.8-4,4-4s4,1.8,4,4S8.2,8,6,8z M6,2C4.9,2,4,2.9,4,4s0.9,2,2,2s2-0.9,2-2S7.1,2,6,2z M2,15c0-2.2,1.8-4,4-4c0.6,0,1-0.4,1-1
	c0-0.6-0.4-1-1-1c-3.3,0-6,2.7-6,6c0,0.6,0.4,1,1,1S2,15.6,2,15z"/>
</svg>
