<?xml version="1.0" encoding="utf-8"?>
<!-- Generator: Adobe Illustrator 28.0.0, SVG Export Plug-In . SVG Version: 6.00 Build 0)  -->
<svg version="1.1" id="Layer_1" xmlns="http://www.w3.org/2000/svg" xmlns:xlink="http://www.w3.org/1999/xlink" x="0px" y="0px"
	 viewBox="0 0 25 25" style="enable-background:new 0 0 25 25;" xml:space="preserve">
<path d="M25,5.2c0,0.6-0.5,1-1,1H1c-0.6,0-1-0.5-1-1s0.5-1,1-1H24C24.5,4.2,25,4.6,25,5.2z M15.6,22.9H9.4c-0.6,0-1,0.5-1,1
	s0.5,1,1,1h6.2c0.6,0,1-0.5,1-1S16.2,22.9,15.6,22.9z M19.8,13.5H5.2c-0.6,0-1,0.5-1,1s0.5,1,1,1h14.6c0.6,0,1-0.5,1-1
	S20.4,13.5,19.8,13.5z"/>
</svg>
