<?xml version="1.0" encoding="utf-8"?>
<!-- Generator: Adobe Illustrator 28.0.0, SVG Export Plug-In . SVG Version: 6.00 Build 0)  -->
<svg version="1.1" id="Layer_1" xmlns="http://www.w3.org/2000/svg" xmlns:xlink="http://www.w3.org/1999/xlink" x="0px" y="0px"
	 viewBox="0 0 25 25" style="enable-background:new 0 0 25 25;" xml:space="preserve">
<path d="M9.4,16.7H11c1.1,0,2.2-0.4,2.9-1.2L24.1,5.3C24.7,4.7,25,4,25,3.1s-0.3-1.6-0.9-2.2c-1.2-1.2-3.2-1.2-4.4,0L9.6,11
	c-0.8,0.8-1.2,1.8-1.2,2.9v1.7C8.3,16.2,8.8,16.7,9.4,16.7L9.4,16.7z M22.6,2.4c0.2,0.2,0.3,0.5,0.3,0.7s-0.1,0.5-0.3,0.7l-1.3,1.3
	l-1.5-1.5l1.3-1.3C21.6,2,22.2,2,22.6,2.4L22.6,2.4z M10.4,14c0-0.6,0.2-1.1,0.6-1.5l7.3-7.3l1.5,1.5L12.5,14
	c-0.4,0.4-0.9,0.6-1.5,0.6h-0.6V14z M25,24c0,0.6-0.5,1-1,1c-1.6,0-2.4-1.2-2.9-2c-0.5-0.8-0.8-1.1-1.2-1.1c-0.5,0-0.9,0.5-1.6,1.2
	c-0.7,0.9-1.6,1.9-3.2,1.9s-2.4-1.1-3.1-1.9c-0.6-0.7-1-1.2-1.5-1.2c-0.4,0-0.7,0.3-1.2,0.9c-0.8,0.9-1.8,2.2-4,2.2
	C2.3,25,0,22.7,0,19.8s2.3-5.2,5.2-5.2c0.6,0,1,0.5,1,1s-0.5,1-1,1c-1.7,0-3.1,1.4-3.1,3.1s1.4,3.1,3.1,3.1c1.2,0,1.7-0.6,2.4-1.4
	c0.6-0.8,1.4-1.7,2.8-1.7c1.5,0,2.4,1.1,3.1,1.9c0.6,0.7,1,1.2,1.5,1.2s0.9-0.5,1.6-1.2c0.7-0.9,1.6-1.9,3.2-1.9s2.4,1.2,2.9,2
	c0.5,0.8,0.8,1.1,1.2,1.1C24.5,22.9,25,23.4,25,24z"/>
</svg>
