<?xml version="1.0" encoding="utf-8"?>
<!-- Generator: Adobe Illustrator 28.0.0, SVG Export Plug-In . SVG Version: 6.00 Build 0)  -->
<svg version="1.1" id="Layer_1" xmlns="http://www.w3.org/2000/svg" xmlns:xlink="http://www.w3.org/1999/xlink" x="0px" y="0px"
	 viewBox="0 0 24 24" style="enable-background:new 0 0 24 24;" xml:space="preserve">
<path d="M12,0C5.4,0,0,5.4,0,12s5.4,12,12,12s12-5.4,12-12S18.6,0,12,0z M12,23C5.9,23,1,18,1,12C1,5.9,6,1,12,1c6.1,0,11,5,11,11
	C23,18.1,18,23,12,23z M17.2,12l0.7,0.7l-4.8,4.8C12.8,17.8,12.4,18,12,18c-0.4,0-0.8-0.2-1.2-0.5L6,12.7L6.7,12l4.7,4.8l0-10.8l1,0
	l0,10.8L17.2,12L17.2,12z"/>
</svg>
