<?xml version="1.0" encoding="utf-8"?>
<!-- Generator: Adobe Illustrator 28.0.0, SVG Export Plug-In . SVG Version: 6.00 Build 0)  -->
<svg version="1.1" id="Layer_1" xmlns="http://www.w3.org/2000/svg" xmlns:xlink="http://www.w3.org/1999/xlink" x="0px" y="0px"
	 viewBox="0 0 15 15" style="enable-background:new 0 0 15 15;" xml:space="preserve">
<style type="text/css">
	.st0{fill:#FFFFFF;}
</style>
<path class="st0" d="M12.2,0H2.8C1.3,0,0,1.3,0,2.8v9.4C0,13.7,1.3,15,2.8,15h9.4c1.6,0,2.8-1.3,2.8-2.8V2.8C15,1.3,13.7,0,12.2,0z
	 M14.4,12.2c0,1.2-1,2.2-2.2,2.2H2.8c-1.2,0-2.2-1-2.2-2.2V2.8c0-1.2,1-2.2,2.2-2.2h9.4c1.2,0,2.2,1,2.2,2.2V12.2z"/>
<path class="st0" d="M10.7,5.6H4.3C4,5.6,3.6,5.8,3.5,6.2c-0.1,0.3-0.1,0.7,0.2,1l3.2,3.2c0.2,0.2,0.4,0.3,0.6,0.3s0.5-0.1,0.6-0.3
	l3.2-3.2c0.3-0.3,0.3-0.6,0.2-1C11.4,5.8,11,5.6,10.7,5.6z M10.9,6.7L7.7,9.9C7.6,10,7.4,10,7.3,9.9L4.1,6.7C4,6.6,4.1,6.4,4.1,6.4
	c0,0,0.1-0.2,0.2-0.2h6.4c0.2,0,0.2,0.1,0.2,0.2C10.9,6.4,11,6.6,10.9,6.7L10.9,6.7z"/>
</svg>
