<?xml version="1.0" encoding="utf-8"?>
<!-- Generator: Adobe Illustrator 28.0.0, SVG Export Plug-In . SVG Version: 6.00 Build 0)  -->
<svg version="1.1" id="Outline" xmlns="http://www.w3.org/2000/svg" xmlns:xlink="http://www.w3.org/1999/xlink" x="0px" y="0px"
	 viewBox="0 0 24 24" style="enable-background:new 0 0 24 24;" xml:space="preserve">
<path d="M12.5,12c3.3,0,6-2.7,6-6s-2.7-6-6-6s-6,2.7-6,6C6.5,9.3,9.2,12,12.5,12z M12.5,2c2.2,0,4,1.8,4,4s-1.8,4-4,4s-4-1.8-4-4
	S10.3,2,12.5,2z"/>
<path d="M12.5,14c-5,0-9,4-9,9c0,0.6,0.4,1,1,1s1-0.4,1-1c0-3.9,3.1-7,7-7s7,3.1,7,7c0,0.6,0.4,1,1,1c0.6,0,1-0.4,1-1
	C21.5,18.1,17.5,14,12.5,14z"/>
</svg>
