<?xml version="1.0" encoding="UTF-8"?>
<svg id="Outline" xmlns="http://www.w3.org/2000/svg" viewBox="0 0 25.02 25.03">
  <path d="m1.04,4.95h2.85c.56,2.07,2.7,3.29,4.77,2.73,1.33-.36,2.37-1.4,2.73-2.73h12.58c.58,0,1.04-.47,1.04-1.04s-.47-1.04-1.04-1.04h-12.58C10.83.8,8.7-.43,6.63.14c-1.33.36-2.37,1.4-2.73,2.73H1.04c-.58,0-1.04.47-1.04,1.04s.47,1.04,1.04,1.04Zm6.6-2.87c1.01,0,1.82.82,1.82,1.82s-.82,1.82-1.82,1.82-1.82-.82-1.82-1.82c0-1.01.82-1.82,1.82-1.82Z" style="fill: #c2cacc; stroke-width: 0px;"/>
  <path d="m23.98,11.47h-2.85c-.56-2.07-2.7-3.29-4.77-2.73-1.33.36-2.37,1.4-2.73,2.73H1.04c-.58,0-1.04.47-1.04,1.04s.47,1.04,1.04,1.04h12.58c.56,2.07,2.7,3.29,4.77,2.73,1.33-.36,2.37-1.4,2.73-2.73h2.85c.58,0,1.04-.47,1.04-1.04s-.47-1.04-1.04-1.04Zm-6.6,2.87c-1.01,0-1.82-.82-1.82-1.82s.82-1.82,1.82-1.82,1.82.82,1.82,1.82c0,1.01-.82,1.82-1.82,1.82Z" style="fill: #c2cacc; stroke-width: 0px;"/>
  <path d="m23.98,20.07h-12.58c-.56-2.07-2.7-3.29-4.77-2.73-1.33.36-2.37,1.4-2.73,2.73H1.04c-.58,0-1.04.47-1.04,1.04s.47,1.04,1.04,1.04h2.85c.56,2.07,2.7,3.29,4.77,2.73,1.33-.36,2.37-1.4,2.73-2.73h12.58c.58,0,1.04-.47,1.04-1.04s-.47-1.04-1.04-1.04Zm-16.33,2.87c-1.01,0-1.82-.82-1.82-1.82s.82-1.82,1.82-1.82,1.82.82,1.82,1.82c0,1.01-.82,1.82-1.82,1.82Z" style="fill: #c2cacc; stroke-width: 0px;"/>
</svg>