<?xml version="1.0" encoding="UTF-8"?>
<svg xmlns="http://www.w3.org/2000/svg" id="Layer_1" data-name="Layer 1" viewBox="0 0 24 24" width="512" height="512"><path d="M9.961,3H2v-1h7.961c.811,0,1.575,.396,2.044,1.059v.002l6.329,8.939h-1.226l-3.823-5.401-7.717,5.401h-1.745L12.706,5.782l-1.517-2.143h0c-.28-.4-.739-.639-1.228-.639Zm7.039,2.5c0-1.378,1.121-2.5,2.5-2.5s2.5,1.122,2.5,2.5-1.121,2.5-2.5,2.5-2.5-1.122-2.5-2.5Zm1,0c0,.827,.673,1.5,1.5,1.5s1.5-.673,1.5-1.5-.673-1.5-1.5-1.5-1.5,.673-1.5,1.5ZM5,15.935c.683,1.23,1.996,2.065,3.5,2.065s2.817-.834,3.5-2.065c.683,1.23,1.996,2.065,3.5,2.065s2.817-.834,3.5-2.065c.683,1.23,1.996,2.065,3.5,2.065,.511,0,1.009-.095,1.48-.283l-.371-.929c-.353,.141-.726,.212-1.109,.212-1.654,0-3-1.346-3-3h-1c0,1.654-1.346,3-3,3s-3-1.346-3-3h-1c0,1.654-1.346,3-3,3s-3-1.346-3-3h-1c0,1.654-1.346,3-3,3-.382,0-.753-.07-1.104-.209l-.367,.93c.468,.186,.963,.279,1.471,.279,1.504,0,2.817-.834,3.5-2.065Zm17.5,7.065c-1.654,0-3-1.346-3-3h-1c0,1.654-1.346,3-3,3s-3-1.346-3-3h-1c0,1.654-1.346,3-3,3s-3-1.346-3-3h-1c0,1.654-1.346,3-3,3-.383,0-.756-.071-1.107-.211l-.369,.93c.47,.187,.967,.281,1.477,.281,1.504,0,2.817-.834,3.5-2.065,.683,1.23,1.996,2.065,3.5,2.065s2.817-.834,3.5-2.065c.683,1.23,1.996,2.065,3.5,2.065s2.817-.834,3.5-2.065c.683,1.23,1.996,2.065,3.5,2.065,.51,0,1.007-.095,1.477-.281l-.369-.93c-.352,.14-.725,.211-1.107,.211Z"/></svg>
