<?xml version="1.0" encoding="utf-8"?>
<!-- Generator: Adobe Illustrator 28.0.0, SVG Export Plug-In . SVG Version: 6.00 Build 0)  -->
<svg version="1.1" id="Layer_1" xmlns="http://www.w3.org/2000/svg" xmlns:xlink="http://www.w3.org/1999/xlink" x="0px" y="0px"
	 viewBox="0 0 24 24" style="enable-background:new 0 0 24 24;" xml:space="preserve">
<path d="M5.3,6.6c-0.4-0.4-0.4-1,0-1.4l4.6-4.5c1.1-1.1,3.1-1.1,4.2,0l4.6,4.4c0.4,0.4,0.4,1,0,1.4c-0.2,0.2-0.5,0.3-0.7,0.3
	c-0.2,0-0.5-0.1-0.7-0.3L13,2.5V16c0,0.6-0.4,1-1,1s-1-0.5-1-1V2.5L6.7,6.7C6.3,7,5.7,7,5.3,6.6L5.3,6.6z M21,7.9c-0.6,0-1,0.5-1,1
	V19c0,1.7-1.3,3-3,3H7c-1.7,0-3-1.4-3-3V9c0-0.6-0.4-1-1-1S2,8.4,2,9V19c0,2.8,2.2,5,5,5h10c2.8,0,5-2.3,5-5V9
	C22,8.4,21.6,7.9,21,7.9z"/>
</svg>
