<?xml version="1.0" encoding="utf-8"?>
<!-- Generator: Adobe Illustrator 28.0.0, SVG Export Plug-In . SVG Version: 6.00 Build 0)  -->
<svg version="1.1" id="Layer_1" xmlns="http://www.w3.org/2000/svg" xmlns:xlink="http://www.w3.org/1999/xlink" x="0px" y="0px"
	 viewBox="0 0 24 24" style="enable-background:new 0 0 24 24;" xml:space="preserve">
<path d="M12,24c6.6,0,12-5.4,12-12S18.6,0,12,0S0,5.4,0,12S5.4,24,12,24z M12,1c6.1,0,11,4.9,11,11s-4.9,11-11,11S1,18.1,1,12
	S5.9,1,12,1L12,1z M6.8,12L6,11.3l4.8-4.8C11.2,6.2,11.6,6,12,6c0.4,0,0.8,0.2,1.2,0.5l4.8,4.8L17.2,12l-4.7-4.7V18h-1V7.2L6.8,12
	L6.8,12L6.8,12z"/>
</svg>
